<svg id="69ac0943-c660-425f-aaac-ff6e9ad6a3d5" xmlns="http://www.w3.org/2000/svg" viewBox="0 0 182.86 44.41">
	<defs>
		<style>
			.\39 8ecee59-7e8a-49c7-965a-2a5ee8ce0c11 {
				fill: #009b8e;
			}
		</style>
	</defs>
	<title>logo</title><path
		class="98ecee59-7e8a-49c7-965a-2a5ee8ce0c11"
		d="M17.91.5A19.37,19.37,0,0,1,.77,6.41L.06,6.27,0,7a44.53,44.53,0,0,0,5.4,22.8C8.75,36,13.36,41.21,18.11,44.2l.33.21.33-.23C27.89,37.92,37.22,22.77,36.57,7l0-.72-.69.13A19.31,19.31,0,0,1,18.81.5L18.36,0l-.45.5m.45,1.31a20.81,20.81,0,0,0,17,6c0,.3,0,.6,0,.89A43.56,43.56,0,0,1,30,29.08,41,41,0,0,1,18.41,42.91C14,40,9.64,35,6.51,29.21A43.66,43.66,0,0,1,1.22,8.71c0-.32,0-.65,0-1A20.85,20.85,0,0,0,18.36,1.81"/><path class="98ecee59-7e8a-49c7-965a-2a5ee8ce0c11" d="M22.18,28.57a.6.6,0,0,0,.59-.6.59.59,0,0,0-1.18,0,.6.6,0,0,0,.59.6"/><path class="98ecee59-7e8a-49c7-965a-2a5ee8ce0c11" d="M27.19,32.24a.45.45,0,0,0,.44-.46.45.45,0,1,0-.89,0,.46.46,0,0,0,.45.46"/><path
		class="98ecee59-7e8a-49c7-965a-2a5ee8ce0c11"
		d="M26.69,29.4a1,1,0,0,0-.1.37c0,.28,0,1.66,0,1.95l-1.27.93a.3.3,0,0,1-.3-.09L23.77,32c-.09,0-.1-.07,0-.19v-2.9a2,2,0,0,0-.26-.53.63.63,0,0,1,.17-.86,9.18,9.18,0,0,1,.93-.65c.12-.1.09-.25.11-.36s.18-.29.26,0a.86.86,0,0,1-.2.94,1.35,1.35,0,0,1-.52.42c-.28.19-.29.42-.12.51l.18.18c.52.41.45.7.46,1.25,0,.23,0,1.34,0,1.34,0,.36,0,.43.23.61.58.45.62.33.62-.16s0-1.85,0-1.85v-.27a.23.23,0,0,0-.39-.07c-.13,0-.31,0-.12-.25l.66-.55H26l.62.49c.09.08.18.18.07.3"/><path
		class="98ecee59-7e8a-49c7-965a-2a5ee8ce0c11"
		d="M16.2,27.27l-1.84-.83h-.14l-.64.59,0,.15.4.12a.31.31,0,0,1,.17.29v1.7h-1.6V26.94l-.14-.14h-.08l-.14.14v4.4L12,31.26c-.17,0-.34-.14-.56-.16h0l0-3.58c-.39-1.68-2.33-1.13-2.87-.35-.19.26-.05.24.12.16a1,1,0,0,1,1.63.46v3.5a1.64,1.64,0,0,0,.46,3c.53,0,.48-.13.11-.21-1.33-.34-1-2.9,1.15-1.52a4.42,4.42,0,0,0,.41.26.59.59,0,0,0,.46.12l1.27-.87c.15,0,.5.43.75.58a.61.61,0,0,0,.4,0,6.31,6.31,0,0,0,1-.71c.23-.16.08-.35-.13-.25-.49.31-.61,0-.65-.5V28.54c0-.12,0-.38,0-.59,0-.06,0-.12.12-.17l.23,0,.34-.42,0-.12m-2,4.41c-.52.62-.83.44-1.31,0-.11-.09-.18-.2-.29-.3v-1.8h1.6Z"/><path
		class="98ecee59-7e8a-49c7-965a-2a5ee8ce0c11"
		d="M20.94,31.78c-.4.14-.55.06-.57-.24V29.81c0-.26.19-.28,0-.45l-.81-.72-.23,0-.11.07h0l-1.09.7-.1-.11a3.52,3.52,0,0,0-.51-.6h-.3l-.54.53c-.2.15-.14.23,0,.26s.48,0,.47.31v1.76a1.12,1.12,0,0,1-.08.37c0,.1.05.13.08.18l.43.21.48.32.37.08.36-.28c.34-.22.37-.35.17-.38h-.4a.5.5,0,0,1-.37-.49v-1.8l.67-.43c.36-.09.44.14.54.47v1.65c0,.2,0,.35-.07.49l.05.15c.17.13.51.26.72.43s.26.07.34,0,.37-.37.51-.54.11-.2,0-.2"/><polygon
		class="98ecee59-7e8a-49c7-965a-2a5ee8ce0c11"
		points="22.73 31.78 22.73 29.54 22.95 29.47 22.95 29.31 22.25 28.75 22.09 28.75 21.42 29.31 21.42 29.47 21.65 29.58 21.65 31.73 21.42 31.84 21.42 32 22.09 32.56 22.25 32.56 22.95 32 22.95 31.84 22.73 31.78"/><path class="98ecee59-7e8a-49c7-965a-2a5ee8ce0c11" d="M7.25,20.16,7.39,18c-.14-.09-.58,0-1.25.32s-1.06.28-1.17-.09,0-.28.07-.44a.26.26,0,0,1-.34,0,.73.73,0,0,1-.39-.69l-2.64.92a45.11,45.11,0,0,0,2.05,6.59l1.21-.42c-1.34-1.64.06-3.74,2.32-4.09"/><path class="98ecee59-7e8a-49c7-965a-2a5ee8ce0c11" d="M20.55,18.1a5.6,5.6,0,0,1,2-4.3l-4.32-1.51-7.44,2.6,3.14,4a.77.77,0,0,1,1.31.79l-.56,1.17,3.55-1.24,2.95,1a5.16,5.16,0,0,1-.67-2.53"/><path class="98ecee59-7e8a-49c7-965a-2a5ee8ce0c11" d="M29.81,16.32l-1.22.54c1.35,1,1.79,1.69,1.76,3.33a3.58,3.58,0,0,1-1.9,3l4.31,1.49a45,45,0,0,0,2.11-6.57Z"/><path
		class="98ecee59-7e8a-49c7-965a-2a5ee8ce0c11"
		d="M8.31,12.91,8.23,14c-1.79.62-2.78,1.12-3.42,3-.07.32.09.44.19.28a4.69,4.69,0,0,1,3.13-1.86l0,.45a4,4,0,0,0-2.58,2c-.16.28,0,.46.18.3A4,4,0,0,1,8,17.4l-.25,3.21c-2.33,0-4.39,2.86-.91,4.56.44.25.67-.05.12-.29-2.86-1.54-.61-4.77,2.42-2,.1.08.12.1.19,0l1-1.92c.07-.33-.33-.57-.51-.21l-.3.52a4.39,4.39,0,0,0-1.42-.59l.06-.72,3.22-1.17,2,2.46c.16.16.28.15.37,0l.84-1.72c.11-.26-.37-.5-.51-.24l-.23.44L8.5,12.84c-.1-.11-.18-.08-.19.07m2.26,4.57-2,.75.22-2.94Z"/><path
		class="98ecee59-7e8a-49c7-965a-2a5ee8ce0c11"
		d="M28.3,13.9,25.05,15l-1.11.35-.05,0a.19.19,0,0,0-.1.24l0,.06a.19.19,0,0,0,.23.14L25,15.5a31.78,31.78,0,0,1-1,3.2,2.64,2.64,0,0,1-1,1.55c-.27.19-.17.29.15.19a3.68,3.68,0,0,0,2.09-1.71c.12-.27.22-.59.37-1l.69-.31-1.56,5,0,.1a3.11,3.11,0,0,1-2.09-2.16,4.89,4.89,0,0,1-.16-2.56,7.85,7.85,0,0,1,1.18-2.87,4.53,4.53,0,0,1,1.62-1.42c.25,0,.22-.24-.11-.19a4.74,4.74,0,0,0-4.1,4.8,4.38,4.38,0,0,0,.84,2.61,5.19,5.19,0,0,0,4.19,2.42,3.32,3.32,0,0,0,3.75-2.79,3.08,3.08,0,0,0-2.05-3.22,2.84,2.84,0,0,0-.62-.12l3.38-1.52a.22.22,0,0,0,.13-.27l0,0,0,0-.19,0a1.59,1.59,0,0,1-1.82-.66,1.12,1.12,0,0,1-.23-.51l-.11,0m-3.17,8.7,0-.08.52-1.68a1.41,1.41,0,0,1,2,.93,3.33,3.33,0,0,1-2.53.83m3-1.59c-.07.18-.13.2-.27.37a1.69,1.69,0,0,0-2-1.08l.33-1.07a2,2,0,0,0,2.25.46A2.31,2.31,0,0,1,28.16,21m.22-1.79a1.44,1.44,0,0,1-2-.48l.48-1.55a1.82,1.82,0,0,1,.86.48,2.61,2.61,0,0,1,.7,1.55m-1-4.52a2.36,2.36,0,0,0,1.88.89l-2.16,1,.22-.83c.11-.23,0-.32-.2-.31l-.08,0-.16.13-.39,1.26-.69.32c.15-.44.24-.63.68-2.15Z"/><path
		class="98ecee59-7e8a-49c7-965a-2a5ee8ce0c11"
		d="M50.68,14.68H46.39l-2.13.11V14l2.13.11h4.29V12.19H45.15L43,12.3v-.82l2.12.11h5.53c0-1.25-.06-1.85-.11-2.47,2.94.26,3.4.45,3.4.75s-.25.47-.91.73v1h4.72c.42-.56.81-1.1,1.3-1.66,2,1.47,2.29,1.77,2.29,2s-.1.28-.34.28h-8v1.89H56.8c.41-.51.79-1,1.28-1.55C60,14,60.16,14.21,60.16,14.42s-.11.26-.32.26H53.06v1.94h5.25c.45-.61.77-1,1.32-1.7C61.78,16.44,62,16.68,62,17a.27.27,0,0,1-.3.26H44l-2.13.1v-.81l2.13.11h6.65ZM47.75,28.11c0,.47-.64.95-1.83.95a.56.56,0,0,1-.62-.58c0-.54.15-3.16.15-6.88,0-1.18,0-2.13-.06-3.61,2,.54,2.68.8,2.85,1H56c.34-.9.58-1.07.88-1.07s.57.08,1.4.64.87.71.87.95-.21.49-.68.77v1.83c0,2.64.13,3.59.13,4.66,0,1.25-.94,2.21-2.79,2.21-.38,0-.42,0-.55-.45a2.63,2.63,0,0,0-2-1.78l0-.32a17.4,17.4,0,0,0,2.19.15c.57,0,.72-.11.72-.76V24.5H47.75Zm8.41-6.7V19.62H48l-.27.33v1.46ZM47.75,23.9h8.41V22H47.75Z"/><path
		class="98ecee59-7e8a-49c7-965a-2a5ee8ce0c11"
		d="M69.7,26.05v2c0,.58-.83.92-1.94.92-.44,0-.66-.17-.66-.53,0-.84.13-3.91.13-11.86,0-1.36,0-2.37-.08-3.38,3.23.3,3.44.45,3.44.73s-.19.48-.89.73V25.45h4.84V13.24c0-1.37,0-2.38-.08-3.43,3.34.27,3.55.42,3.55.73s-.19.47-.92.73V25.45h5V16.19c0-1.36,0-2.37-.07-3.38,3.23.3,3.45.45,3.45.73s-.19.48-.92.73v2c0,8.68.13,10.87.13,11.34s-.81.93-1.93.93c-.45,0-.66-.17-.66-.54V26.05Z"/><path
		class="98ecee59-7e8a-49c7-965a-2a5ee8ce0c11"
		d="M92,22.78l-2.13.11v-.82l2.13.11h6.57c0-1.07,0-2.06-.11-2.92,1.09.11,1.83.19,2.3.28a15.62,15.62,0,0,0,1.27-2H96.2l-2.13.11v-.82L96.2,17H102c.47-.75.68-1,1-1s.4,0,1.3.71,1,1,1,1.14-.3.5-1.36.6c-.73.39-1.68.86-2.53,1.23.21.08.27.17.27.28,0,.3-.21.43-.83.68v1.53h4.55c.49-.62,1-1.29,1.62-1.95,2.27,1.69,2.51,2,2.51,2.25s-.13.3-.34.3h-8.34c0,2.13.15,3.65.15,4.32,0,1.18-1.17,2.06-2.76,2.06-.38,0-.45,0-.53-.43-.24-.94-.77-1.44-2.17-1.91l0-.32a19.75,19.75,0,0,0,2.1.15c.77,0,.9-.09.9-.86v-3Zm10-9a27.76,27.76,0,0,0,2.23-4.73c2.66,1.08,2.81,1.27,2.81,1.55s-.24.45-1,.47a22,22,0,0,1-3.15,2.71h3.19c.47-.9.83-1.24,1.08-1.24s.62.08,1.32.68c1,.84,1,1,1,1.36s-.29.6-1.29.71A24.21,24.21,0,0,1,105.55,17l-.26-.21a12.83,12.83,0,0,0,.92-2.37H93.14a3.36,3.36,0,0,1,.08.75c0,1.53-.87,2.43-1.91,2.43a1.09,1.09,0,0,1-1.19-1.07,1.56,1.56,0,0,1,.61-1.23,2.34,2.34,0,0,0,1.15-1.87c0-.3,0-.58,0-.88l.32-.06a4.27,4.27,0,0,1,.78,1.33ZM93.26,9.44c2.36.56,3.57,1.61,3.57,2.77a1.17,1.17,0,0,1-1.21,1.25c-.68,0-.93-.43-1.06-1A6.08,6.08,0,0,0,93.07,9.7Zm4.57-.21c2.21.62,3.26,1.59,3.26,2.68,0,.84-.45,1.44-1.24,1.44a1.08,1.08,0,0,1-1.1-1,5.37,5.37,0,0,0-1.13-2.9Z"/><path
		class="98ecee59-7e8a-49c7-965a-2a5ee8ce0c11"
		d="M118.85,10.49c.32-.73.57-1,.89-1s.64.15,1.38.77.77.71.77,1-.17.43-.89.73a28.4,28.4,0,0,1-2.68,4.52,4.76,4.76,0,0,1,3,4.29A2.87,2.87,0,0,1,119,23.94a2.51,2.51,0,0,1-.32,0c-.28,0-.34-.15-.45-.6a1.58,1.58,0,0,0-1-1.16v5.93c0,.43-.59.86-1.64.86-.36,0-.55-.17-.55-.53s.11-2.8.11-15.62c0-1.1,0-2.22-.09-3.42a7.48,7.48,0,0,1,2.6,1.05Zm-1.4.6-.26.28V21.79a7.11,7.11,0,0,0,1.13.07c.55,0,.85-.26.85-1.18a5.38,5.38,0,0,0-1.47-4.09,37.82,37.82,0,0,0,1.21-5.5Zm12.71,9.67a.56.56,0,0,1-.41.58v4.71c0,.38.17.47.85.47.94,0,1.21-.15,1.58-.71a8.61,8.61,0,0,0,.78-1.72l.32.07a15.74,15.74,0,0,0-.15,1.76c0,.45.87.51.87,1.22s-.85,1.38-3.4,1.38c-2.78,0-3.08-.37-3.08-1.4s.11-2.32.11-4.92V20.76h-1a.49.49,0,0,1-.47.47c-.64,4.71-3.59,7.09-8.14,7.76l-.11-.3A8.81,8.81,0,0,0,124,20.76h-.34l-1.81.11v-.82l1.81.11H130c.49-.62.95-1.2,1.44-1.72,2.09,1.61,2.26,1.83,2.26,2.11,0,.13-.09.21-.24.21ZM123,13.09a4,4,0,0,1,.17,1.18,1.75,1.75,0,0,1-1.68,2,1,1,0,0,1-1-1,1.52,1.52,0,0,1,.73-1.29,1.78,1.78,0,0,0,.74-1.39,5.53,5.53,0,0,0-.06-.84l.29-.11a3.45,3.45,0,0,1,.6.84H126V11.12c0-.73,0-1.59-.07-2.09,2.73.2,3,.41,3,.67s-.11.36-.79.6v2.19H131c.46-1,.74-1.07,1-1.07s.49.06,1.24.66.85.84.85,1.08-.26.51-1.13.66A11.47,11.47,0,0,1,131,15.46l-.28-.18a20.79,20.79,0,0,0,.53-2.19Zm1.45,3.57h4a19.45,19.45,0,0,1,1.38-1.61c2,1.52,2.08,1.72,2.08,2a.21.21,0,0,1-.23.21h-7.25l-1.91.11v-.82Z"/><path
		class="98ecee59-7e8a-49c7-965a-2a5ee8ce0c11"
		d="M158.63,26.5a3.23,3.23,0,0,0-2.08,1.44c-.19.28-.28.41-.4.41a.92.92,0,0,1-.45-.2,15.62,15.62,0,0,1-6.53-11.06A15.21,15.21,0,0,1,146,24.31a14,14,0,0,1-7.25,4.34l-.08-.3a14.43,14.43,0,0,0,5.78-5.25,16.91,16.91,0,0,0,2.27-7h-5.4l-2.12.1v-.81l2.12.11h5.46a52.66,52.66,0,0,0,.28-6.08c3.13.36,3.42.53,3.42.85s-.17.52-.8.74a42.69,42.69,0,0,1-.28,4.49h4.65a16.46,16.46,0,0,1,1.66-2c2.38,1.85,2.6,2.12,2.6,2.34s-.13.26-.34.26h-8.51a15.5,15.5,0,0,0,9.21,10.09Z"/><path
		class="98ecee59-7e8a-49c7-965a-2a5ee8ce0c11"
		d="M165.32,22.78l-2.12.11v-.82l2.12.11h6.57c0-1.07,0-2.06-.11-2.92,1.09.11,1.83.19,2.3.28a14.58,14.58,0,0,0,1.27-2h-5.84l-2.13.11v-.82l2.13.11h5.84c.47-.75.68-1,1-1s.41,0,1.3.71,1,1,1,1.14-.3.5-1.36.6c-.73.39-1.68.86-2.53,1.23.21.08.27.17.27.28,0,.3-.21.43-.82.68v1.53h4.54c.49-.62,1-1.29,1.62-1.95,2.27,1.69,2.51,2,2.51,2.25s-.13.3-.34.3h-8.33c0,2.13.14,3.65.14,4.32,0,1.18-1.16,2.06-2.76,2.06-.38,0-.45,0-.53-.43-.23-.94-.77-1.44-2.17-1.91l0-.32a19.93,19.93,0,0,0,2.11.15c.76,0,.89-.09.89-.86v-3Zm10-9a27.76,27.76,0,0,0,2.23-4.73c2.66,1.08,2.81,1.27,2.81,1.55s-.24.45-1,.47a22,22,0,0,1-3.15,2.71h3.19c.47-.9.83-1.24,1.09-1.24s.61.08,1.31.68c1,.84,1,1,1,1.36s-.3.6-1.3.71A23.3,23.3,0,0,1,178.86,17l-.25-.21a12.82,12.82,0,0,0,.91-2.37H166.45a3.36,3.36,0,0,1,.08.75c0,1.53-.87,2.43-1.91,2.43a1.09,1.09,0,0,1-1.19-1.07,1.55,1.55,0,0,1,.62-1.23,2.35,2.35,0,0,0,1.14-1.87c0-.3,0-.58,0-.88l.32-.06a4.3,4.3,0,0,1,.79,1.33Zm-8.71-4.36c2.36.56,3.57,1.61,3.57,2.77a1.17,1.17,0,0,1-1.21,1.25c-.68,0-.94-.43-1.07-1a6.08,6.08,0,0,0-1.49-2.81Zm4.57-.21c2.21.62,3.25,1.59,3.25,2.68,0,.84-.45,1.44-1.23,1.44a1.08,1.08,0,0,1-1.11-1,5.37,5.37,0,0,0-1.13-2.9Z"/><path
		class="98ecee59-7e8a-49c7-965a-2a5ee8ce0c11"
		d="M47.64,40.25h-2.7v-.39a2,2,0,0,0,.5,0,.21.21,0,0,0,.15-.23.58.58,0,0,0-.05-.26l-.27-.69H43.41l-.14.38a1.49,1.49,0,0,0-.12.45.31.31,0,0,0,.2.33,1.53,1.53,0,0,0,.46.07v.39h-2v-.39a.84.84,0,0,0,.4-.09,1,1,0,0,0,.31-.34,4.92,4.92,0,0,0,.33-.71l1.65-4.37h.4l1.74,4.51c.13.32.22.53.28.65a.69.69,0,0,0,.25.26.88.88,0,0,0,.44.09Zm-2.52-2-.79-2-.75,2Z"/><path
		class="98ecee59-7e8a-49c7-965a-2a5ee8ce0c11"
		d="M54.66,37.35a3,3,0,0,1-.37,1.48,2.79,2.79,0,0,1-1.1,1.11,3.37,3.37,0,0,1-1.72.42A3.54,3.54,0,0,1,50,40.09a2.75,2.75,0,0,1-1-.71,2.82,2.82,0,0,1-.57-1,3,3,0,0,1-.19-1.06,3.13,3.13,0,0,1,.36-1.47,2.78,2.78,0,0,1,1.08-1.1,3.38,3.38,0,0,1,1.73-.42,3.68,3.68,0,0,1,1.56.3,2.82,2.82,0,0,1,1,.76,2.93,2.93,0,0,1,.51,1A3.41,3.41,0,0,1,54.66,37.35Zm-1.36,0a4.59,4.59,0,0,0-.09-.93,2.21,2.21,0,0,0-.29-.78,1.37,1.37,0,0,0-.56-.56,1.75,1.75,0,0,0-.89-.21,1.65,1.65,0,0,0-1.13.36,1.83,1.83,0,0,0-.56.92,4.94,4.94,0,0,0-.14,1.2,6.23,6.23,0,0,0,0,.74,2.77,2.77,0,0,0,.23.8,1.59,1.59,0,0,0,1.57,1,1.6,1.6,0,0,0,1-.29,1.71,1.71,0,0,0,.56-.7,2.92,2.92,0,0,0,.22-.8A6.09,6.09,0,0,0,53.3,37.34Z"/><path
		class="98ecee59-7e8a-49c7-965a-2a5ee8ce0c11"
		d="M61,34.85a.85.85,0,0,0-.38.11,1,1,0,0,0-.31.29c-.11.14-.26.36-.46.67l-1.2,1.88v1.37a1.25,1.25,0,0,0,.05.38.39.39,0,0,0,.22.22,1.33,1.33,0,0,0,.56.09v.39H56.6v-.39a1.76,1.76,0,0,0,.54-.07.37.37,0,0,0,.24-.21,1.11,1.11,0,0,0,.06-.41V37.88L56,35.46l0-.06s0,0,0,0a1.1,1.1,0,0,0-.33-.4.82.82,0,0,0-.43-.11v-.39h2.68v.39h-.32a.36.36,0,0,0-.19.07.21.21,0,0,0-.07.18.38.38,0,0,0,0,.19,4.14,4.14,0,0,0,.23.43l.89,1.53.85-1.36a1.49,1.49,0,0,0,.27-.64c0-.18,0-.3-.17-.34a1.22,1.22,0,0,0-.48-.07v-.39H61Z"/><path
		class="98ecee59-7e8a-49c7-965a-2a5ee8ce0c11"
		d="M66.5,40.25H63.8v-.39a1.91,1.91,0,0,0,.5,0,.22.22,0,0,0,.16-.23.58.58,0,0,0-.06-.26l-.27-.69H62.28l-.14.38a1.49,1.49,0,0,0-.12.45.3.3,0,0,0,.19.33,1.64,1.64,0,0,0,.46.07v.39h-2v-.39a.82.82,0,0,0,.4-.09,1,1,0,0,0,.32-.34,5.06,5.06,0,0,0,.32-.71l1.65-4.37h.4l1.75,4.51a6.62,6.62,0,0,0,.28.65.75.75,0,0,0,.24.26.9.9,0,0,0,.44.09Zm-2.52-2-.79-2-.75,2Z"/><path
		class="98ecee59-7e8a-49c7-965a-2a5ee8ce0c11"
		d="M75.14,40.25H72.27v-.39a1.39,1.39,0,0,0,.54-.08.4.4,0,0,0,.23-.21,1.11,1.11,0,0,0,0-.4V35.54l-2.16,4.71h-.26l-2.19-4.71V39a4.19,4.19,0,0,0,0,.42.43.43,0,0,0,.1.25.42.42,0,0,0,.24.15,1.86,1.86,0,0,0,.47,0v.39H67.19v-.39a1.86,1.86,0,0,0,.47,0,.48.48,0,0,0,.24-.16.51.51,0,0,0,.1-.24c0-.1,0-.24,0-.42V35.71a3.25,3.25,0,0,0,0-.53.4.4,0,0,0-.21-.25,1.59,1.59,0,0,0-.58-.08v-.39h2.1l1.9,4.09,1.9-4.09h2v.39a1,1,0,0,0-.68.16.73.73,0,0,0-.15.52v3.64a1,1,0,0,0,0,.38.37.37,0,0,0,.23.23,1.52,1.52,0,0,0,.55.08Z"/><path
		class="98ecee59-7e8a-49c7-965a-2a5ee8ce0c11"
		d="M81.62,40.25h-2.7v-.39a2,2,0,0,0,.5,0,.21.21,0,0,0,.15-.23.58.58,0,0,0,0-.26l-.27-.69H77.39l-.13.38a1.49,1.49,0,0,0-.12.45.3.3,0,0,0,.19.33,1.59,1.59,0,0,0,.46.07v.39h-2v-.39a.82.82,0,0,0,.4-.09,1,1,0,0,0,.31-.34,4.92,4.92,0,0,0,.33-.71l1.65-4.37h.4l1.75,4.51a6.62,6.62,0,0,0,.28.65.67.67,0,0,0,.24.26.88.88,0,0,0,.44.09Zm-2.52-2-.79-2-.75,2Z"/><path
		class="98ecee59-7e8a-49c7-965a-2a5ee8ce0c11"
		d="M91.28,38a1.62,1.62,0,0,0-.37.08.29.29,0,0,0-.17.19,1,1,0,0,0,0,.4V40a5.94,5.94,0,0,0-1.33.16l-.77.16a3.58,3.58,0,0,1-.61,0,2.83,2.83,0,0,1-1.59-.44,2.78,2.78,0,0,1-1-1.13,3.32,3.32,0,0,1-.33-1.43,3,3,0,0,1,.39-1.52,3,3,0,0,1,1.07-1.09A2.89,2.89,0,0,1,88,34.36a2.66,2.66,0,0,1,1.77.67,2,2,0,0,0,.16-.5h.41l0,1.9H90a2.06,2.06,0,0,0-.34-.79,1.75,1.75,0,0,0-.61-.57,1.57,1.57,0,0,0-.8-.21,2,2,0,0,0-.63.11,1.56,1.56,0,0,0-.58.4,2,2,0,0,0-.43.76,3.72,3.72,0,0,0-.16,1.19,5.06,5.06,0,0,0,.13,1.17,2,2,0,0,0,.51,1,1.5,1.5,0,0,0,1.1.4,1.65,1.65,0,0,0,.85-.18.84.84,0,0,0,.37-.43,1.7,1.7,0,0,0,.09-.57,1.51,1.51,0,0,0,0-.44.32.32,0,0,0-.21-.2,1.44,1.44,0,0,0-.5-.07v-.39h2.56Z"/><path
		class="98ecee59-7e8a-49c7-965a-2a5ee8ce0c11"
		d="M97.58,40.25h-2.7v-.39a2,2,0,0,0,.5,0,.21.21,0,0,0,.15-.23.75.75,0,0,0,0-.26l-.27-.69H93.35l-.14.38a1.49,1.49,0,0,0-.12.45.31.31,0,0,0,.2.33,1.53,1.53,0,0,0,.46.07v.39h-2v-.39a.84.84,0,0,0,.4-.09,1,1,0,0,0,.31-.34,4.12,4.12,0,0,0,.32-.71l1.66-4.37h.4l1.74,4.51c.13.32.22.53.28.65a.69.69,0,0,0,.25.26.88.88,0,0,0,.44.09Zm-2.52-2-.79-2-.75,2Z"/><path
		class="98ecee59-7e8a-49c7-965a-2a5ee8ce0c11"
		d="M104.93,40.25h-3.18v-.39H102a2.15,2.15,0,0,0,.45,0,.16.16,0,0,0,.12-.15,1.76,1.76,0,0,0-.35-.64L101,37.28l-.73.64v1.25a.69.69,0,0,0,.18.54,1,1,0,0,0,.66.15v.39H98.24v-.39a1.39,1.39,0,0,0,.54-.08.36.36,0,0,0,.23-.22,1,1,0,0,0,0-.39V35.53a1.29,1.29,0,0,0,0-.38.39.39,0,0,0-.23-.22,1.48,1.48,0,0,0-.55-.08v-.39h2.87v.39a1.07,1.07,0,0,0-.69.15.76.76,0,0,0-.15.53v1.75l1.79-1.58a2.23,2.23,0,0,0,.27-.28.47.47,0,0,0,.08-.26c0-.21-.19-.31-.58-.31v-.39h2.62v.39a4,4,0,0,0-.5.07,1.34,1.34,0,0,0-.37.16,2.69,2.69,0,0,0-.4.28l-.68.58-.6.53,1.69,2.43a6,6,0,0,0,.44.58,1.1,1.1,0,0,0,.38.28,1.41,1.41,0,0,0,.52.1Z"/><path
		class="98ecee59-7e8a-49c7-965a-2a5ee8ce0c11"
		d="M111.64,34.85a1.26,1.26,0,0,0-.56.09.37.37,0,0,0-.2.26,2.16,2.16,0,0,0,0,.51v2.14a6.54,6.54,0,0,1,0,.88,1.8,1.8,0,0,1-.21.6,1.76,1.76,0,0,1-.9.81,3.27,3.27,0,0,1-1.11.22,3.35,3.35,0,0,1-.81-.11,2.42,2.42,0,0,1-.77-.34,1.52,1.52,0,0,1-.55-.63,2.23,2.23,0,0,1-.16-.43,3.24,3.24,0,0,1-.06-.4c0-.13,0-.3,0-.5V35.53a.76.76,0,0,0-.15-.53c-.09-.1-.32-.15-.68-.15v-.39h2.89v.39a1.52,1.52,0,0,0-.55.08.37.37,0,0,0-.23.21,1,1,0,0,0-.06.39V38a4.19,4.19,0,0,0,0,.65,2.09,2.09,0,0,0,.11.49,1.13,1.13,0,0,0,.49.55,1.43,1.43,0,0,0,.76.21,1.58,1.58,0,0,0,.82-.22,1.21,1.21,0,0,0,.53-.57,2.19,2.19,0,0,0,.16-.57,7,7,0,0,0,0-.7V35.71a2.31,2.31,0,0,0,0-.42.5.5,0,0,0-.09-.24.41.41,0,0,0-.25-.15,2,2,0,0,0-.48,0v-.39h2.11Z"/><path
		class="98ecee59-7e8a-49c7-965a-2a5ee8ce0c11"
		d="M115.24,40.25h-2.91v-.39a1.89,1.89,0,0,0,.55-.07.42.42,0,0,0,.24-.21,1.11,1.11,0,0,0,.06-.41V35.53A.72.72,0,0,0,113,35a1.05,1.05,0,0,0-.69-.15v-.39h2.91v.39a1.52,1.52,0,0,0-.55.07.41.41,0,0,0-.25.21,1.4,1.4,0,0,0,0,.4v3.64a1,1,0,0,0,0,.39.4.4,0,0,0,.24.22,1.51,1.51,0,0,0,.56.08Z"/><path
		class="98ecee59-7e8a-49c7-965a-2a5ee8ce0c11"
		d="M122.24,34.85a1.62,1.62,0,0,0-.59.08.39.39,0,0,0-.22.25,2.25,2.25,0,0,0,0,.53V40.3H121l-3.75-4.5V39a2.18,2.18,0,0,0,0,.53.39.39,0,0,0,.22.25,1.42,1.42,0,0,0,.59.09v.39H116v-.39a1.24,1.24,0,0,0,.55-.09.35.35,0,0,0,.21-.25,2.3,2.3,0,0,0,0-.53V36a3.72,3.72,0,0,0,0-.53.8.8,0,0,0-.09-.32.55.55,0,0,0-.23-.22,1.48,1.48,0,0,0-.45-.11v-.39h1.67l3.26,3.89V35.71a2.08,2.08,0,0,0,0-.5.42.42,0,0,0-.21-.27,1.33,1.33,0,0,0-.56-.09v-.39h2.14Z"/><path
		class="98ecee59-7e8a-49c7-965a-2a5ee8ce0c11"
		d="M129.89,34.46h1.91v.19a1.07,1.07,0,0,0-.57.18.65.65,0,0,0-.23.33,3.71,3.71,0,0,0,0,.71V37.8a7.35,7.35,0,0,1-.06,1.1,1.55,1.55,0,0,1-.33.7,1.76,1.76,0,0,1-.76.55,2.91,2.91,0,0,1-1.15.21,2.83,2.83,0,0,1-1.29-.27,1.68,1.68,0,0,1-.76-.67,2.37,2.37,0,0,1-.22-1.12V35.9a5.47,5.47,0,0,0,0-.89.38.38,0,0,0-.17-.28,1.27,1.27,0,0,0-.56-.08h-.13v-.19h2.61v.19H128a1.48,1.48,0,0,0-.55.07.39.39,0,0,0-.18.27,5.61,5.61,0,0,0,0,.91v1.83a7,7,0,0,0,.08,1.34,1.18,1.18,0,0,0,.49.7,1.81,1.81,0,0,0,1.07.29,2.1,2.1,0,0,0,.95-.2,1.5,1.5,0,0,0,.64-.49,1.54,1.54,0,0,0,.26-.61,8,8,0,0,0,0-1v-2a3.39,3.39,0,0,0-.05-.68.53.53,0,0,0-.24-.31,1.23,1.23,0,0,0-.57-.15Z"/><path
		class="98ecee59-7e8a-49c7-965a-2a5ee8ce0c11"
		d="M137.7,40.38l-4-5.43v4a2.83,2.83,0,0,0,0,.66.52.52,0,0,0,.28.29,1.37,1.37,0,0,0,.68.13v.2h-2.14v-.2a1.53,1.53,0,0,0,.63-.15.47.47,0,0,0,.25-.26,3,3,0,0,0,0-.67V35.9a4.22,4.22,0,0,0-.06-.89.4.4,0,0,0-.19-.29,1.72,1.72,0,0,0-.59-.07v-.19h1.69L137.68,39V35.53a1.32,1.32,0,0,0-.08-.54.53.53,0,0,0-.32-.25,1.64,1.64,0,0,0-.58-.09v-.19h2.08v.19a1.39,1.39,0,0,0-.57.15.53.53,0,0,0-.27.26,1.73,1.73,0,0,0-.05.53v4.79Z"/><path
		class="98ecee59-7e8a-49c7-965a-2a5ee8ce0c11"
		d="M139.48,34.65v-.19h2.62v.19H142a1.55,1.55,0,0,0-.56.07.38.38,0,0,0-.17.27,5.18,5.18,0,0,0-.05.91v2.84a8.2,8.2,0,0,0,0,.9.5.5,0,0,0,.17.31.94.94,0,0,0,.53.1h.17v.2h-2.62v-.2h.17a1.05,1.05,0,0,0,.51-.09.46.46,0,0,0,.18-.29,8.5,8.5,0,0,0,0-.93V35.9a7.85,7.85,0,0,0,0-.89.41.41,0,0,0-.17-.28,1.36,1.36,0,0,0-.57-.08Z"/><path
		class="98ecee59-7e8a-49c7-965a-2a5ee8ce0c11"
		d="M146.08,40.39h-.26l-2-4.61c0-.08-.09-.22-.17-.43a1.4,1.4,0,0,0-.35-.55,1.08,1.08,0,0,0-.59-.15v-.19h2.47v.19a2,2,0,0,0-.62.07.28.28,0,0,0-.16.26,2.12,2.12,0,0,0,.2.58l1.65,3.85,1.32-3.2a4,4,0,0,0,.34-1.05q0-.48-.69-.51v-.19H149v.19a.69.69,0,0,0-.47.2,1.44,1.44,0,0,0-.35.53l-.39.91Z"/><path
		class="98ecee59-7e8a-49c7-965a-2a5ee8ce0c11"
		d="M154.34,38.45h.21l-.13,1.8h-4.74v-.2h.12a.86.86,0,0,0,.55-.11.56.56,0,0,0,.16-.29,7.8,7.8,0,0,0,0-.91V35.9a7.78,7.78,0,0,0,0-.87.4.4,0,0,0-.17-.29,1.06,1.06,0,0,0-.54-.09v-.19h4.09L154,35.9h-.2a2.32,2.32,0,0,0-.33-.86.82.82,0,0,0-.47-.32,4.27,4.27,0,0,0-.87-.07h-.79v2.44h.6a1.58,1.58,0,0,0,.59-.08.4.4,0,0,0,.22-.22,2.27,2.27,0,0,0,.05-.57h.2v2h-.2a1.61,1.61,0,0,0-.08-.65.37.37,0,0,0-.23-.21,2.09,2.09,0,0,0-.52-.05h-.63v1.37a2.93,2.93,0,0,0,.13,1.21c.08.12.32.18.7.18h.43a2.18,2.18,0,0,0,.74-.11,1.32,1.32,0,0,0,.56-.49A2.84,2.84,0,0,0,154.34,38.45Z"/><path
		class="98ecee59-7e8a-49c7-965a-2a5ee8ce0c11"
		d="M161.49,40.25H160a6.89,6.89,0,0,1-1.25-1.52c-.18-.26-.37-.51-.56-.75a2.29,2.29,0,0,0-.41-.44.52.52,0,0,0-.34-.08h-.23v1.28a8.2,8.2,0,0,0,0,.9.5.5,0,0,0,.17.31,1,1,0,0,0,.53.1h.27v.2h-2.74v-.2h.19a1.05,1.05,0,0,0,.51-.09.46.46,0,0,0,.18-.29,7.6,7.6,0,0,0,0-.93V35.9a7,7,0,0,0,0-.89.38.38,0,0,0-.17-.28,1.36,1.36,0,0,0-.57-.08h-.1v-.19l.82-.05,1.31,0a4.87,4.87,0,0,1,1.33.15,1.79,1.79,0,0,1,.83.5,1.24,1.24,0,0,1,.32.84,1.3,1.3,0,0,1-.42,1,2,2,0,0,1-1.22.5,4.65,4.65,0,0,1,1.16,1.27,5.78,5.78,0,0,0,1,1.15,1.44,1.44,0,0,0,.87.29Zm-4.33-3,.66,0a2.52,2.52,0,0,0,.59-.09,1.09,1.09,0,0,0,.4-.22,1.08,1.08,0,0,0,.24-.39,1.7,1.7,0,0,0,.09-.59,1.51,1.51,0,0,0-.3-1,1.73,1.73,0,0,0-1.32-.37l-.36,0Z"/><path
		class="98ecee59-7e8a-49c7-965a-2a5ee8ce0c11"
		d="M162.4,40.19V38.33h.21c.24,1.21.81,1.82,1.7,1.82a1.24,1.24,0,0,0,.94-.35,1.1,1.1,0,0,0,.33-.78,1,1,0,0,0-.29-.73,3.7,3.7,0,0,0-1.07-.62,8.79,8.79,0,0,1-1-.53,1.62,1.62,0,0,1-.74-1.35,1.37,1.37,0,0,1,.43-1,1.49,1.49,0,0,1,1.07-.41,2,2,0,0,1,.69.12,1.75,1.75,0,0,1,.65.5.89.89,0,0,0,.22-.51h.19V36h-.19a2,2,0,0,0-.56-1,1.38,1.38,0,0,0-.95-.38.89.89,0,0,0-1,.89.88.88,0,0,0,.3.68,4.34,4.34,0,0,0,1.07.64c.49.22.85.4,1.08.53a1.61,1.61,0,0,1,.54.56,1.73,1.73,0,0,1,.2.83,1.58,1.58,0,0,1-.49,1.21,1.83,1.83,0,0,1-1.31.47,2,2,0,0,1-1.57-.73,1.4,1.4,0,0,0-.21.56Z"/><path
		class="98ecee59-7e8a-49c7-965a-2a5ee8ce0c11"
		d="M167.2,34.65v-.19h2.62v.19h-.12a1.55,1.55,0,0,0-.56.07A.41.41,0,0,0,169,35a5.18,5.18,0,0,0-.05.91v2.84a8.2,8.2,0,0,0,0,.9.5.5,0,0,0,.17.31,1,1,0,0,0,.53.1h.17v.2H167.2v-.2h.17a1.05,1.05,0,0,0,.51-.09.46.46,0,0,0,.18-.29,7.6,7.6,0,0,0,0-.93V35.9a7,7,0,0,0,0-.89.38.38,0,0,0-.17-.28,1.36,1.36,0,0,0-.57-.08Z"/><path
		class="98ecee59-7e8a-49c7-965a-2a5ee8ce0c11"
		d="M170.84,35.85h-.19l0-1.39h5.56l0,1.39h-.18a2.42,2.42,0,0,0-.27-.83.69.69,0,0,0-.36-.31,2.55,2.55,0,0,0-.67-.06h-.92v4.09a8.33,8.33,0,0,0,0,.9.45.45,0,0,0,.17.31,1,1,0,0,0,.53.1h.28v.2H172v-.2h.3a1.05,1.05,0,0,0,.51-.09.46.46,0,0,0,.18-.29,7.6,7.6,0,0,0,0-.93V34.65h-.85a3,3,0,0,0-.75.06.65.65,0,0,0-.35.32A2.32,2.32,0,0,0,170.84,35.85Z"/><path
		class="98ecee59-7e8a-49c7-965a-2a5ee8ce0c11"
		d="M180.11,37.72l1.13-1.92a1.58,1.58,0,0,0,.28-.67.46.46,0,0,0-.15-.33.73.73,0,0,0-.53-.15v-.19h1.88v.19a1.1,1.1,0,0,0-.63.3,4.32,4.32,0,0,0-.61.86L180.19,38v.77a5.45,5.45,0,0,0,.05.94.39.39,0,0,0,.19.29,1.26,1.26,0,0,0,.57.08v.2h-2.44v-.2h.09a1,1,0,0,0,.51-.09.46.46,0,0,0,.18-.29,5.92,5.92,0,0,0,0-.93V38L178,35.66a5.37,5.37,0,0,0-.58-.86.79.79,0,0,0-.51-.15v-.19h2.32v.19c-.43,0-.65.1-.65.3a1.32,1.32,0,0,0,.21.48Z"/></svg>
